<?xml version="1.0" standalone="no"?>
<!DOCTYPE svg PUBLIC "-//W3C//DTD SVG 20010904//EN"
 "http://www.w3.org/TR/2001/REC-SVG-20010904/DTD/svg10.dtd">
<svg version="1.0" xmlns="http://www.w3.org/2000/svg"
 width="700.000000pt" height="700.000000pt" viewBox="0 0 700.000000 700.000000"
 preserveAspectRatio="xMidYMid meet">
<metadata>
Created by potrace 1.11, written by Peter Selinger 2001-2013
</metadata>
<g transform="translate(0.000000,700.000000) scale(0.100000,-0.100000)"
fill="#000000" stroke="none">
<path d="M1585 6989 c-11 -5 -185 -175 -387 -377 -247 -247 -369 -376 -374
-396 -3 -15 -2 -45 5 -65 9 -32 58 -77 343 -317 369 -310 789 -664 828 -697
14 -12 52 -44 85 -72 33 -27 65 -54 71 -60 6 -5 33 -28 60 -50 199 -164 269
-229 267 -249 -6 -80 -19 -248 -28 -341 -2 -33 -7 -91 -10 -130 -4 -38 -8 -88
-10 -110 -2 -22 -7 -80 -11 -130 -4 -49 -8 -101 -9 -115 -2 -14 -3 -29 -4 -35
-1 -5 -29 -32 -64 -60 -34 -27 -64 -52 -67 -56 -3 -3 -196 -165 -430 -359
-234 -195 -434 -362 -445 -371 -11 -10 -63 -53 -115 -96 -52 -43 -106 -88
-120 -100 -14 -12 -93 -78 -176 -147 -162 -135 -181 -160 -169 -223 6 -32 56
-87 379 -409 342 -342 375 -372 413 -378 52 -9 85 7 133 65 19 23 116 137 215
253 99 117 209 246 245 289 35 42 67 77 71 77 3 0 5 -12 3 -27 -1 -16 -6 -64
-9 -108 -3 -44 -8 -96 -10 -115 -2 -19 -7 -73 -10 -120 -4 -47 -8 -101 -10
-120 -2 -19 -7 -73 -10 -120 -4 -47 -8 -98 -10 -115 -1 -16 -5 -73 -9 -125 -4
-52 -9 -111 -11 -130 -2 -19 -7 -69 -10 -110 -8 -94 -13 -157 -20 -240 -9
-103 -13 -159 -20 -245 -3 -44 -8 -96 -10 -115 -2 -19 -7 -75 -10 -125 -4 -49
-8 -101 -10 -115 -7 -48 -19 -226 -19 -278 0 -46 5 -57 32 -85 l32 -32 433 -3
432 -3 -1 536 c0 581 -1 575 55 612 24 16 60 18 396 19 403 1 426 -2 462 -54
17 -25 18 -64 18 -567 l1 -540 418 -3 c362 -2 422 0 450 13 47 22 68 73 62
150 -13 148 -17 192 -21 225 -2 19 -7 73 -10 120 -3 47 -8 108 -10 135 -3 28
-7 79 -10 115 -9 109 -15 182 -20 240 -3 30 -7 84 -10 120 -3 36 -7 90 -10
120 -3 30 -7 84 -10 120 -2 36 -7 91 -10 123 -6 71 -13 153 -20 237 -6 71 -12
148 -20 237 -3 32 -7 87 -10 123 -13 164 -16 197 -20 227 -6 42 10 36 52 -20
17 -23 40 -51 50 -62 10 -11 88 -103 173 -205 85 -102 160 -191 167 -198 6 -7
40 -46 74 -87 66 -80 110 -104 165 -91 18 5 151 131 388 368 199 198 369 372
378 387 23 33 23 75 1 113 -10 16 -78 79 -151 139 -73 61 -138 116 -145 122
-6 7 -52 46 -102 87 -49 41 -101 85 -115 97 -14 12 -176 148 -360 303 -184
155 -346 291 -360 303 -14 12 -63 53 -110 92 -47 38 -87 72 -90 75 -6 6 -134
113 -138 116 -4 2 -10 57 -17 154 -4 46 -8 103 -10 125 -4 43 -11 127 -20 240
-3 39 -8 88 -10 110 -2 22 -7 81 -10 130 -4 50 -8 94 -8 99 -1 5 109 104 245
220 136 116 257 220 270 231 13 11 82 69 153 130 72 60 132 112 135 115 3 3
48 41 100 85 52 44 100 84 106 90 6 5 33 29 60 51 27 23 59 50 71 60 12 11 43
37 70 59 26 22 70 60 98 84 27 24 61 53 75 65 84 71 157 132 166 142 6 5 30
25 52 44 50 41 67 77 57 127 -6 33 -55 86 -378 410 -325 324 -377 372 -410
378 -23 5 -49 2 -67 -5 -20 -8 -123 -124 -306 -344 -152 -182 -283 -340 -292
-351 -10 -11 -51 -60 -92 -110 -41 -49 -77 -92 -80 -95 -6 -5 -372 -445 -398
-478 -9 -12 -17 -14 -26 -7 -7 6 -44 30 -82 55 -325 214 -743 219 -1071 13
-49 -30 -91 -59 -94 -64 -5 -9 -26 13 -139 146 -39 45 -44 52 -290 345 -95
113 -187 221 -204 241 -17 20 -40 47 -51 60 -11 13 -35 42 -54 64 -18 22 -50
60 -70 84 -20 24 -41 49 -46 55 -9 9 -178 210 -290 345 -36 43 -105 62 -150
40z m341 -629 c127 -151 322 -383 433 -515 112 -132 210 -249 219 -260 9 -11
42 -50 72 -85 30 -35 62 -74 72 -85 9 -11 47 -56 85 -101 107 -126 148 -176
187 -222 19 -24 46 -55 60 -70 13 -15 52 -61 87 -102 271 -327 302 -361 333
-368 17 -3 37 -6 44 -5 6 0 19 1 27 2 22 2 60 41 175 181 56 69 106 127 109
130 4 3 22 25 41 50 19 24 47 58 62 75 15 16 158 188 318 380 160 193 299 359
308 370 10 11 51 61 92 110 41 50 77 92 80 95 3 3 22 26 43 52 21 26 43 53 50
60 7 7 76 90 153 184 77 93 150 181 161 195 21 24 60 70 143 170 25 29 56 66
70 81 l25 28 258 -259 258 -259 -74 -63 c-40 -35 -127 -109 -192 -164 -65 -55
-123 -105 -129 -110 -10 -10 -166 -142 -606 -514 -107 -91 -197 -168 -200
-171 -5 -5 -120 -103 -180 -153 -55 -45 -145 -122 -150 -127 -3 -3 -79 -69
-170 -145 -91 -77 -170 -144 -176 -150 -6 -5 -35 -30 -64 -55 -207 -175 -217
-188 -199 -253 13 -49 8 -44 175 -183 42 -36 424 -358 578 -488 124 -104 196
-164 246 -206 30 -25 99 -83 154 -130 56 -47 187 -157 291 -245 105 -88 195
-164 201 -170 6 -5 22 -19 35 -30 87 -72 222 -185 332 -279 l128 -108 -132
-132 c-73 -72 -189 -189 -259 -259 l-127 -128 -74 88 c-41 48 -76 90 -79 93
-3 3 -39 46 -80 95 -41 50 -102 122 -135 160 -33 39 -80 95 -105 125 -25 30
-62 74 -84 99 -21 25 -45 55 -55 66 -9 11 -41 50 -71 85 -30 35 -62 74 -71 85
-38 46 -262 312 -283 335 -12 14 -91 108 -176 210 -140 168 -400 477 -454 540
-11 14 -43 52 -71 84 -61 72 -100 91 -155 76 -31 -8 -55 -29 -122 -108 -45
-53 -87 -102 -93 -108 -5 -6 -28 -33 -50 -59 -22 -27 -108 -128 -190 -224 -83
-97 -159 -187 -170 -200 -37 -44 -260 -306 -270 -317 -5 -6 -28 -32 -50 -58
-22 -27 -48 -58 -58 -70 -10 -11 -37 -43 -60 -70 -125 -148 -292 -344 -311
-366 -12 -14 -124 -145 -249 -293 l-228 -267 -132 131 c-73 72 -189 189 -260
259 l-127 128 97 82 c126 105 74 62 558 465 231 192 422 352 425 355 3 3 30
25 60 50 30 25 57 47 60 50 3 3 165 138 360 300 195 162 357 297 360 300 3 3
56 48 117 99 108 90 119 103 128 150 11 58 -3 73 -405 410 -36 30 -87 73 -115
96 -27 24 -142 120 -255 215 -113 95 -227 191 -255 215 -27 23 -142 120 -255
214 -113 95 -216 182 -230 194 -14 12 -52 44 -85 72 -33 27 -62 52 -65 55 -5
6 -38 33 -289 243 -58 49 -130 110 -159 135 l-52 46 257 259 258 258 35 -38
c19 -21 139 -162 266 -313z m926 -1941 l128 -108 -93 -76 c-50 -42 -114 -95
-141 -118 -80 -68 -85 -71 -81 -45 2 13 6 59 9 103 12 158 17 231 21 260 2 17
4 47 4 68 1 46 -9 52 153 -84z m1449 69 c0 -18 2 -44 4 -58 1 -14 6 -68 10
-120 5 -52 9 -106 10 -120 8 -80 9 -115 2 -113 -5 1 -71 54 -148 118 l-139
117 43 35 c23 19 67 57 97 83 121 105 120 105 121 58z m-273 -1945 c54 -40 55
-46 55 -448 0 -414 -1 -423 -68 -451 -49 -20 -979 -21 -1028 0 -69 29 -70 29
-69 420 0 193 1 368 1 388 1 54 44 99 102 107 24 3 255 6 512 5 451 -1 469 -2
495 -21z"/>
<path d="M3150 2097 l0 -232 350 0 350 0 0 232 0 233 -350 0 -350 0 0 -233z"/>
<path d="M3278 929 c-7 -5 -10 -157 -10 -450 0 -244 1 -452 1 -461 1 -17 19
-18 231 -18 l230 0 1 23 c3 115 0 899 -4 903 -7 7 -437 10 -449 3z"/>
</g>
</svg>
